Coordinates
version=1
nRows=27
nColumns=12
inDegrees=yes

Units are S.I. units (second, meters, Newtons, ...)
Angles are in degrees

endheader
time	SC_y	SC_z	SC_x	AC_y	AC_z	AC_x	GH_y	GH_z	GH_yy	EL_x	PS_y
       0.0              -51.02          38.47          35.54          30.91          9.587         -17.38          90.07          75.11         -57.51          53.26          74.78
   0.03945              -51.01          38.47          35.54          30.91          9.586         -17.38          90.05          75.11         -57.48          53.27          74.78
   0.07891              -51.01          38.47          35.53          30.91          9.585         -17.37          90.02           75.1         -57.44          53.28          74.79
    0.1184               -51.0          38.46          35.53          30.91          9.583         -17.37           90.0           75.1         -57.41          53.28          74.79
    0.1578               -51.0          38.46          35.52          30.91          9.582         -17.36          89.97          75.09         -57.37           53.3          74.79
    0.1973              -50.99          38.45          35.52          30.91           9.58         -17.36          89.95          75.09         -57.33          53.31          74.79
    0.2367              -50.98          38.44          35.51          30.91          9.579         -17.35          89.92          75.09         -57.28          53.32           74.8
    0.2762              -50.98          38.44           35.5          30.92          9.577         -17.35          89.89          75.08         -57.23          53.33           74.8
    0.3156              -50.97          38.43           35.5          30.92          9.575         -17.34          89.85          75.08         -57.18          53.34           74.8
    0.3551              -50.96          38.42          35.49          30.92          9.573         -17.33          89.82          75.07         -57.13          53.36          74.81
    0.3945              -50.95          38.42          35.48          30.92          9.571         -17.32          89.78          75.06         -57.07          53.37          74.81
     0.434              -50.95          38.41          35.47          30.92          9.569         -17.32          89.73          75.06         -57.01          53.39          74.82
    0.4735              -50.94           38.4          35.46          30.92          9.566         -17.31          89.69          75.05         -56.94          53.41          74.82
    0.5129              -50.93          38.39          35.45          30.92          9.563          -17.3          89.64          75.04         -56.87          53.43          74.82
    0.5524              -50.92          38.38          35.44          30.92           9.56         -17.29          89.59          75.04         -56.79          53.45          74.83
    0.5918               -50.9          38.37          35.43          30.92          9.557         -17.28          89.53          75.03          -56.7          53.47          74.84
    0.6313              -50.89          38.35          35.42          30.92          9.554         -17.26          89.47          75.02         -56.61          53.49          74.84
    0.6707              -50.88          38.34           35.4          30.92           9.55         -17.25           89.4          75.01         -56.51          53.52          74.85
    0.7102              -50.86          38.32          35.39          30.92          9.546         -17.24          89.33           75.0          -56.4          53.55          74.86
    0.7496              -50.84          38.31          35.37          30.92          9.541         -17.22          89.25          74.98         -56.27          53.58          74.86
    0.7891              -50.83          38.29          35.35          30.92          9.536          -17.2          89.16          74.97         -56.14          53.62          74.87
    0.8286              -50.81          38.27          35.33          30.92          9.531         -17.18          89.06          74.95         -55.99          53.65          74.88
     0.868              -50.78          38.25          35.31          30.92          9.525         -17.16          88.95          74.94         -55.83           53.7          74.89
    0.9075              -50.76          38.22          35.28          30.92          9.518         -17.14          88.83          74.92         -55.65          53.74          74.91
    0.9469              -50.73           38.2          35.26          30.93          9.511         -17.11           88.7           74.9         -55.45           53.8          74.92
    0.9864               -50.7          38.17          35.23          30.93          9.502         -17.08          88.55          74.88         -55.23          53.85          74.93
     1.026              -50.67          38.13          35.19          30.93          9.493         -17.05          88.39          74.85         -54.98          53.92          74.95
